<svg width="167" height="62" viewBox="0 0 167 62" fill="none" xmlns="http://www.w3.org/2000/svg">
<path d="M18.7507 37C18.7507 37 25.3127 37 25.7507 33.5C26.0876 30.8083 26.0768 28.3957 23.7507 27C18.7507 24 13.2507 24.5 9.25071 21C6.73965 18.8028 5.73494 16.9725 7.25072 14C8.52076 11.5094 13.7507 11.5 13.7507 11.5" stroke="#CB8641" stroke-width="8" stroke-linecap="round"/>
<path d="M1.75049 38.5C1.75049 38.5 3.63957 33.7901 6.25049 33.5C10.7505 33 13.2643 39.4028 18.7505 40.5C23.7505 41.5 28.7505 39 29.7505 34.5C30.5542 30.8834 29.7118 28.269 27.2505 25.5C23.2505 21 10.4436 22.6671 10.7505 16.5C10.8677 14.1436 14.2505 14 14.2505 14" stroke="#302828" stroke-width="3.5" stroke-linecap="round"/>
<path d="M26.5454 14.7188C22.0454 15.2188 19.5316 8.81598 14.0454 7.71874C9.04541 6.71874 4.04541 9.21875 3.04541 13.7188C2.24172 17.3354 3.08405 19.9497 5.54541 22.7188C9.54541 27.2188 22.3523 25.5516 22.0454 31.7188C21.9282 34.0752 18.5454 34.2188 18.5454 34.2188" stroke="#302828" stroke-width="3.5" stroke-linecap="round"/>
<path d="M36.5305 40.5V15.3H40.1305V40.5H36.5305ZM47.675 40.5V15.3H57.503C60.767 15.3 63.335 16.08 65.207 17.64C67.079 19.176 68.015 21.324 68.015 24.084C68.015 25.908 67.595 27.48 66.755 28.8C65.915 30.096 64.715 31.092 63.155 31.788C61.595 32.484 59.711 32.832 57.503 32.832H49.655L51.275 31.176V40.5H47.675ZM64.523 40.5L58.115 31.356H61.967L68.447 40.5H64.523ZM51.275 31.536L49.655 29.772H57.395C59.699 29.772 61.439 29.28 62.615 28.296C63.815 27.288 64.415 25.884 64.415 24.084C64.415 22.284 63.815 20.892 62.615 19.908C61.439 18.924 59.699 18.432 57.395 18.432H49.655L51.275 16.632V31.536ZM73.8313 40.5V15.3H77.4313V40.5H73.8313ZM84.9758 40.5V15.3H102.76V18.432H88.5758V37.368H103.264V40.5H84.9758ZM88.2518 29.232V26.172H101.212V29.232H88.2518ZM109.093 40.5V15.3H112.045L123.349 34.344H121.765L132.925 15.3H135.877L135.913 40.5H132.457L132.421 20.736H133.249L123.313 37.44H121.657L111.649 20.736H112.549V40.5H109.093ZM139.66 40.5L151.072 15.3H154.636L166.084 40.5H162.304L152.116 17.316H153.556L143.368 40.5H139.66ZM144.52 34.2L145.492 31.32H159.676L160.72 34.2H144.52Z" fill="#302828"/>
<path d="M39.9545 58.5V48.896H44.9105C45.4612 48.896 45.9372 48.994 46.3385 49.19C46.7398 49.3767 47.0478 49.6427 47.2625 49.988C47.4865 50.3333 47.5985 50.744 47.5985 51.22C47.5985 51.584 47.5332 51.92 47.4025 52.228C47.2718 52.536 47.0898 52.7927 46.8565 52.998C46.6232 53.2033 46.3572 53.3573 46.0585 53.46V53.516C46.3945 53.5907 46.6978 53.726 46.9685 53.922C47.2392 54.118 47.4538 54.3793 47.6125 54.706C47.7805 55.0233 47.8645 55.4153 47.8645 55.882C47.8645 56.5073 47.7338 57.0113 47.4725 57.394C47.2112 57.7767 46.8612 58.0567 46.4225 58.234C45.9838 58.4113 45.4798 58.5 44.9105 58.5H39.9545ZM41.2845 57.352H44.8965C45.3725 57.352 45.7598 57.2307 46.0585 56.988C46.3572 56.736 46.5065 56.3207 46.5065 55.742C46.5065 55.3873 46.4412 55.0933 46.3105 54.86C46.1798 54.6173 45.9885 54.44 45.7365 54.328C45.4845 54.2067 45.1672 54.146 44.7845 54.146H41.2845V57.352ZM41.2845 53.012H44.6585C44.9758 53.012 45.2512 52.9513 45.4845 52.83C45.7178 52.6993 45.8998 52.522 46.0305 52.298C46.1705 52.0647 46.2405 51.8033 46.2405 51.514C46.2405 51.01 46.1052 50.6413 45.8345 50.408C45.5638 50.1653 45.2045 50.044 44.7565 50.044H41.2845V53.012ZM52.5299 58.5V48.896H53.8599V58.5H52.5299ZM59.0623 58.5V48.896H60.3923V53.978L65.2783 48.896H66.9303L63.2763 52.732L67.0563 58.5H65.4743L62.3523 53.684L60.3923 55.532V58.5H59.0623ZM71.1318 58.5V48.896H78.5238V50.044H72.4618V53.012H77.9078V54.16H72.4618V57.352H78.6078V58.5H71.1318ZM91.4842 58.5V50.058H88.1942V48.896H96.1322V50.058H92.8142V58.5H91.4842ZM100.422 58.5V48.896H105.476C106.13 48.896 106.671 49.0173 107.1 49.26C107.539 49.4933 107.866 49.8247 108.08 50.254C108.295 50.674 108.402 51.1593 108.402 51.71C108.402 52.3727 108.253 52.942 107.954 53.418C107.656 53.894 107.245 54.2347 106.722 54.44L108.738 58.5H107.282L105.406 54.678H101.752V58.5H100.422ZM101.752 53.544H105.35C105.882 53.544 106.298 53.3807 106.596 53.054C106.904 52.7273 107.058 52.2793 107.058 51.71C107.058 51.3553 106.993 51.0567 106.862 50.814C106.732 50.5713 106.54 50.3847 106.288 50.254C106.036 50.114 105.724 50.044 105.35 50.044H101.752V53.544ZM113.394 58.5V48.896H114.724V58.5H113.394ZM119.927 58.5V48.896H124.673C125.335 48.896 125.886 49.022 126.325 49.274C126.763 49.5167 127.09 49.8573 127.305 50.296C127.529 50.7347 127.641 51.2433 127.641 51.822C127.641 52.41 127.519 52.9327 127.277 53.39C127.034 53.838 126.689 54.188 126.241 54.44C125.802 54.692 125.275 54.818 124.659 54.818H121.257V58.5H119.927ZM121.257 53.67H124.575C125.097 53.67 125.513 53.5067 125.821 53.18C126.138 52.8533 126.297 52.4053 126.297 51.836C126.297 51.4533 126.231 51.1313 126.101 50.87C125.97 50.6087 125.779 50.408 125.527 50.268C125.275 50.1187 124.957 50.044 124.575 50.044H121.257V53.67Z" fill="#302828"/>
<path d="M26.7505 0C27.7891 0 28.8917 0.316533 29.7642 1.03223C30.6726 1.7776 31.2505 2.89559 31.2505 4.26953C31.2504 5.0789 30.9401 5.88704 30.6304 6.52246C30.3024 7.19529 29.8795 7.86229 29.481 8.43457C29.079 9.01175 28.6801 9.52333 28.3833 9.88867C28.2345 10.0718 28.1097 10.2202 28.021 10.3242C27.9766 10.3763 27.9406 10.4175 27.9155 10.4463C27.903 10.4607 27.8934 10.4723 27.8862 10.4805C27.8827 10.4845 27.8796 10.4878 27.8774 10.4902L27.8735 10.4941L26.7505 9.5L27.8726 10.4951L26.7505 11.7617L25.6284 10.4951L26.7505 9.5L25.6274 10.4941L25.6235 10.4902C25.6214 10.4878 25.6183 10.4845 25.6147 10.4805C25.6076 10.4723 25.598 10.4607 25.5854 10.4463C25.5604 10.4175 25.5244 10.3763 25.48 10.3242C25.3912 10.2202 25.2665 10.0718 25.1177 9.88867C24.8208 9.52333 24.422 9.01175 24.02 8.43457C23.6215 7.86229 23.1986 7.19529 22.8706 6.52246C22.5609 5.88704 22.2506 5.0789 22.2505 4.26953C22.2505 2.89559 22.8284 1.7776 23.7368 1.03223C24.6093 0.316533 25.7119 0 26.7505 0ZM26.7505 2.5C25.6459 2.5 24.7505 3.39543 24.7505 4.5C24.7505 5.60457 25.6459 6.5 26.7505 6.5C27.8551 6.5 28.7505 5.60457 28.7505 4.5C28.7505 3.39543 27.8551 2.5 26.7505 2.5Z" fill="#302828"/>
</svg>
