<svg xmlns="http://www.w3.org/2000/svg" width="32" height="43" viewBox="0 0 32 43" fill="none"><metadata><rdf:RDF xmlns:rdf="http://www.w3.org/1999/02/22-rdf-syntax-ns#" xmlns:dc="http://purl.org/dc/elements/1.1/"><rdf:Description><dc:creator>RealFaviconGenerator</dc:creator><dc:source>https://realfavicongenerator.net</dc:source></rdf:Description></rdf:RDF></metadata><path d="M18.7507 37C18.7507 37 25.3127 37 25.7507 33.5C26.0876 30.8083 26.0768 28.3957 23.7507 27C18.7507 24 13.2507 24.5 9.25071 21C6.73965 18.8028 5.73494 16.9725 7.25072 14C8.52076 11.5094 13.7507 11.5 13.7507 11.5" stroke="#CB8641" stroke-width="8" stroke-linecap="round"></path><path d="M1.75049 38.5C1.75049 38.5 3.63957 33.7901 6.25049 33.5C10.7505 33 13.2643 39.4028 18.7505 40.5C23.7505 41.5 28.7505 39 29.7505 34.5C30.5542 30.8834 29.7118 28.269 27.2505 25.5C23.2505 21 10.4436 22.6671 10.7505 16.5C10.8677 14.1436 14.2505 14 14.2505 14" stroke="#302828" stroke-width="3.5" stroke-linecap="round"></path><path d="M26.5454 14.7188C22.0454 15.2188 19.5316 8.81598 14.0454 7.71874C9.04541 6.71874 4.04541 9.21875 3.04541 13.7188C2.24172 17.3354 3.08405 19.9497 5.54541 22.7188C9.54541 27.2188 22.3523 25.5516 22.0454 31.7188C21.9282 34.0752 18.5454 34.2188 18.5454 34.2188" stroke="#302828" stroke-width="3.5" stroke-linecap="round"></path><path d="M26.7505 0C27.7891 0 28.8917 0.316533 29.7642 1.03223C30.6726 1.7776 31.2505 2.89559 31.2505 4.26953C31.2504 5.0789 30.9401 5.88704 30.6304 6.52246C30.3024 7.19529 29.8795 7.86229 29.481 8.43457C29.079 9.01175 28.6801 9.52333 28.3833 9.88867C28.2345 10.0718 28.1097 10.2202 28.021 10.3242C27.9766 10.3763 27.9406 10.4175 27.9155 10.4463C27.903 10.4607 27.8934 10.4723 27.8862 10.4805C27.8827 10.4845 27.8796 10.4878 27.8774 10.4902L27.8735 10.4941L26.7505 9.5L27.8726 10.4951L26.7505 11.7617L25.6284 10.4951L26.7505 9.5L25.6274 10.4941L25.6235 10.4902C25.6214 10.4878 25.6183 10.4845 25.6147 10.4805C25.6076 10.4723 25.598 10.4607 25.5854 10.4463C25.5604 10.4175 25.5244 10.3763 25.48 10.3242C25.3912 10.2202 25.2665 10.0718 25.1177 9.88867C24.8208 9.52333 24.422 9.01175 24.02 8.43457C23.6215 7.86229 23.1986 7.19529 22.8706 6.52246C22.5609 5.88704 22.2506 5.0789 22.2505 4.26953C22.2505 2.89559 22.8284 1.7776 23.7368 1.03223C24.6093 0.316533 25.7119 0 26.7505 0ZM26.7505 2.5C25.6459 2.5 24.7505 3.39543 24.7505 4.5C24.7505 5.60457 25.6459 6.5 26.7505 6.5C27.8551 6.5 28.7505 5.60457 28.7505 4.5C28.7505 3.39543 27.8551 2.5 26.7505 2.5Z" fill="#302828"></path></svg>